Coordinates
version=1
nRows=17
nColumns=24
inDegrees=yes

Units are S.I. units (second, meters, Newtons, ...)
Angles are in degrees.

endheader
time	pelvis_tilt	pelvis_list	pelvis_rotation	pelvis_tx	pelvis_ty	pelvis_tz	hip_flexion_r	hip_adduction_r	hip_rotation_r	knee_angle_r	ankle_angle_r	subtalar_angle_r	mtp_angle_r	hip_flexion_l	hip_adduction_l	hip_rotation_l	knee_angle_l	ankle_angle_l	subtalar_angle_l	mtp_angle_l	lumbar_extension	lumbar_bending	lumbar_rotation
      1.04966667	      4.76781068	     -6.04601395	      9.10658495	      0.54159155	      1.03034169	      0.27776749	      8.54992580	     12.35148515	     -3.81256894	    -21.05967543	     10.30801994	     -6.28195896	      4.74821645	     19.48058509	     -7.55163943	      2.22432531	    -59.08469875	      9.71536545	      0.34526057	      3.75594210	     -4.18235715	      4.87001591	     -0.57603939
      1.05383333	      4.82092620	     -5.90547727	      8.88856133	      0.54584055	      1.03154776	      0.27815861	      7.94900539	     12.27358640	     -3.61710742	    -20.60975792	     10.35715477	     -6.06360936	      4.74962601	     19.68083945	     -7.33313003	      2.04373492	    -58.00466517	      9.67311623	     -0.51093014	      3.61025422	     -4.31540452	      4.72946231	     -0.36829515
      1.05800000	      4.87946057	     -5.76820676	      8.67831670	      0.55009240	      1.03274612	      0.27851932	      7.34023747	     12.19516799	     -3.42289828	    -20.14825595	     10.39121086	     -5.85126604	      4.75199311	     19.85914920	     -7.11906593	      1.87076563	    -56.88247398	      9.59041124	     -1.37464285	      3.43800638	     -4.45488518	      4.59337211	     -0.16416849
      1.06216667	      4.91953726	     -5.63187894	      8.46035375	      0.55434244	      1.03384326	      0.27888815	      6.76050255	     12.11244217	     -3.22303594	    -19.70396320	     10.43455693	     -5.65389570	      4.75597296	     20.04487552	     -6.91198898	      1.68379817	    -55.73435213	      9.48124466	     -2.22472976	      3.26106803	     -4.56825604	      4.45339037	      0.02000240
      1.06633333	      4.96751842	     -5.49539060	      8.24788177	      0.55859307	      1.03491612	      0.27924008	      6.17313205	     12.02672767	     -3.02408366	    -19.25656190	     10.47312939	     -5.45868927	      4.76116840	     20.20606823	     -6.70848904	      1.50166711	    -54.54855035	      9.34000484	     -3.05643482	      3.06990017	     -4.69213312	      4.31317621	      0.20194000
      1.07050000	      4.99365199	     -5.36134678	      8.00702962	      0.56283032	      1.03588991	      0.27961052	      5.62396399	     11.93896156	     -2.78930108	    -18.84116645	     10.49614781	     -5.27528643	      4.76627173	     20.37346988	     -6.51520365	      1.29477319	    -53.33764526	      9.20402068	     -3.83571716	      2.90346571	     -4.80884330	      4.19363117	      0.35015572
      1.07466667	      5.04947078	     -5.24224445	      7.82143676	      0.56709782	      1.03686008	      0.27990176	      5.02875306	     11.86388902	     -2.61615078	    -18.37805960	     10.54276408	     -5.10323454	      4.77459105	     20.50845883	     -6.32669772	      1.15031020	    -52.09832569	      8.98544077	     -4.61171220	      2.67039526	     -4.91563942	      4.05740449	      0.55311675
      1.07883333	      5.05544214	     -5.13086315	      7.57184358	      0.57133677	      1.03767081	      0.28027346	      4.51426577	     11.79272243	     -2.36330936	    -17.97691434	     10.56082441	     -4.94108774	      4.78138235	     20.67953295	     -6.16783632	      0.93706749	    -50.84534429	      8.81029006	     -5.27833796	      2.48452162	     -5.00480393	      3.95234094	      0.68647562
      1.08300000	      5.08923660	     -5.01475559	      7.35235814	      0.57559451	      1.03848305	      0.28059159	      3.96153867	     11.71456402	     -2.14354370	    -17.55275192	     10.58843208	     -4.79168956	      4.78931839	     20.80723783	     -5.99756906	      0.76153014	    -49.55909553	      8.58650102	     -5.90806233	      2.28927691	     -5.10180990	      3.83082431	      0.84147335
      1.08716667	      5.09243709	     -4.93229815	      7.16561999	      0.57986281	      1.03915554	      0.28084530	      3.44537329	     11.66277168	     -1.95979121	    -17.11543957	     10.63518033	     -4.66431567	      4.80306686	     20.97869911	     -5.84223610	      0.64760652	    -48.27280564	      8.32672184	     -6.52051136	      1.98997006	     -5.13800694	      3.74037878	      1.04642783
      1.09133333	      5.10781409	     -4.84149712	      6.93516485	      0.58413318	      1.03979890	      0.28116099	      2.92413715	     11.60464048	     -1.71967168	    -16.70642374	     10.66721485	     -4.54589458	      4.81741753	     21.11060620	     -5.70641687	      0.47155705	    -46.96136178	      8.09416383	     -6.99680968	      1.71373210	     -5.20700342	      3.64638467	      1.19630013
      1.09550000	      5.08941518	     -4.76132495	      6.67362756	      0.58837502	      1.04031409	      0.28151996	      2.46224474	     11.55171795	     -1.45006191	    -16.34260446	     10.68121179	     -4.42308047	      4.82915521	     21.27100972	     -5.59165592	      0.27428248	    -45.64083961	      7.86682261	     -7.35024126	      1.50925018	     -5.26408395	      3.56803526	      1.30728347
      1.09966667	      5.10063268	     -4.70894788	      6.47589701	      0.59265315	      1.04080150	      0.28177385	      1.94537202	     11.52915809	     -1.22616472	    -15.90945734	     10.70789491	     -4.35297105	      4.84829191	     21.40681205	     -5.48085273	      0.17195080	    -44.31657934	      7.60638611	     -7.74052634	      1.20497469	     -5.30284506	      3.51298867	      1.49927170
      1.10383333	      5.09295031	     -4.65597530	      6.22340184	      0.59691772	      1.04120880	      0.28211391	      1.46519573	     11.50389352	     -0.93240320	    -15.51867529	     10.69027721	     -4.29124318	      5.15212926	     21.54588585	     -5.39805210	      0.00022223	    -42.99369535	      7.49079155	     -7.86694236	     -2.71965337	     -5.35197092	      3.45883451	      1.70027634
      1.10800000	      5.01448911	     -4.61843836	      5.96922240	      0.60117801	      1.04142087	      0.28243773	      1.09099468	     11.47939416	     -0.67922351	    -15.18726801	     10.73059229	     -4.19138165	      5.15616221	     21.76128255	     -5.31998474	     -0.14794475	    -41.66222746	      7.24540294	     -8.01250133	     -2.74321644	     -5.31275383	      3.41768028	      1.74925442
      1.11216667	      5.00497999	     -4.58565301	      5.74222035	      0.60545050	      1.04168881	      0.28271339	      0.61948091	     11.46701256	     -0.41909168	    -14.80037263	     10.75827516	     -4.14366537	      5.16391778	     21.89049593	     -5.24032074	     -0.24145917	    -40.31071602	      6.97556858	     -8.18897358	     -2.78425308	     -5.34049362	      3.38842524	      1.91961114
      1.11633333	      4.93257978	     -4.56742673	      5.47486384	      0.60971777	      1.04179326	      0.28306308	      0.24601762	     11.46042476	     -0.14181223	    -14.48048323	     10.78730014	     -4.06809066	      5.17241682	     22.08332061	     -5.19699832	     -0.38840814	    -38.96923737	      6.74001163	     -8.17617259	     -2.81687039	     -5.30931113	      3.36340133	      2.01501024
